<svg width="417" height="168" viewBox="0 0 417 168" fill="none" xmlns="http://www.w3.org/2000/svg">
<path d="M144.576 47.76C144.768 47.952 144.864 48.24 144.864 48.624C144.864 48.912 144.624 49.344 144.144 49.92C140.976 53.376 138.144 57.36 135.648 61.872C133.152 66.288 130.992 71.136 129.168 76.416C127.44 81.696 126.096 87.264 125.136 93.12C124.176 98.976 123.696 104.976 123.696 111.12C123.696 115.728 124.272 119.328 125.424 121.92C126.576 124.416 128.544 125.664 131.328 125.664C135.072 125.664 138.72 122.976 142.272 117.6C142.56 117.408 142.848 117.408 143.136 117.6C143.424 117.792 143.472 118.08 143.28 118.464C142.32 120.096 141.168 121.728 139.824 123.36C138.576 124.896 137.232 126.336 135.792 127.68C134.352 128.928 132.912 129.984 131.472 130.848C130.128 131.616 128.88 132 127.728 132C124.56 132 122.112 130.416 120.384 127.248C118.752 123.984 117.936 119.856 117.936 114.864C117.936 107.184 118.8 99.36 120.528 91.392C116.016 91.392 111.552 91.44 107.136 91.536C102.816 91.632 98.544 91.776 94.32 91.968C91.152 95.328 88.08 98.496 85.104 101.472C82.224 104.448 79.392 107.184 76.608 109.68C68.928 116.688 61.008 122.16 52.848 126.096C44.784 130.032 35.904 132 26.208 132C21.312 132 17.328 130.848 14.256 128.544C11.28 126.144 9.216 123.168 8.064 119.616C7.008 116.064 6.912 112.176 7.776 107.952C8.736 103.632 10.8 99.6 13.968 95.856C14.256 95.664 14.592 95.712 14.976 96C15.36 96.192 15.504 96.624 15.408 97.296C13.104 99.792 11.712 102.672 11.232 105.936C10.848 109.2 11.376 112.32 12.816 115.296C14.256 118.272 16.704 120.768 20.16 122.784C23.616 124.8 28.128 125.808 33.696 125.808C40.992 125.808 48.336 124.08 55.728 120.624C63.216 117.168 70.272 112.32 76.896 106.08C79.008 104.16 81.168 102.048 83.376 99.744C85.68 97.344 88.08 94.8 90.576 92.112C83.952 92.592 78 93.168 72.72 93.84C72.24 93.744 72.144 93.504 72.432 93.12C72.72 92.736 73.152 92.352 73.728 91.968C74.4 91.488 75.12 91.104 75.888 90.816C76.752 90.432 77.568 90.192 78.336 90.096C79.488 90 81.36 89.952 83.952 89.952C86.64 89.856 89.664 89.76 93.024 89.664C98.496 83.904 104.592 77.712 111.312 71.088C118.128 64.464 126 57.648 134.928 50.64C128.496 48.528 121.824 46.8 114.912 45.456C108.096 44.016 101.52 43.296 95.184 43.296C87.984 43.296 81.984 45.408 77.184 49.632C72.48 53.76 69.552 60.096 68.4 68.64C68.208 69.12 67.92 69.312 67.536 69.216C67.248 69.12 67.056 68.832 66.96 68.352C68.112 58.944 71.616 51.744 77.472 46.752C83.328 41.76 90.912 39.264 100.224 39.264C104.16 39.264 108.144 39.552 112.176 40.128C116.208 40.608 120.144 41.28 123.984 42.144C127.824 42.912 131.472 43.824 134.928 44.88C138.48 45.84 141.696 46.8 144.576 47.76ZM120.96 89.52C122.592 82.512 124.848 75.696 127.728 69.072C130.608 62.352 134.064 56.256 138.096 50.784C129.648 57.6 122.064 64.32 115.344 70.944C108.624 77.472 102.384 83.712 96.624 89.664C101.232 89.568 105.792 89.52 110.304 89.52C114.816 89.52 118.368 89.52 120.96 89.52ZM178.43 98.592C178.526 98.304 178.766 98.016 179.15 97.728C179.534 97.344 179.966 96.96 180.445 96.576C181.022 96.192 181.55 95.904 182.03 95.712C182.606 95.424 183.038 95.28 183.326 95.28C184.19 95.28 184.526 95.616 184.334 96.288C182.222 102.24 180.158 108.048 178.142 113.712C176.126 119.28 173.966 125.088 171.662 131.136C169.07 137.856 166.286 143.472 163.31 147.984C160.43 152.592 157.358 156.288 154.094 159.072C150.926 161.952 147.614 164.016 144.158 165.264C140.701 166.512 137.149 167.136 133.501 167.136C128.413 167.136 124.573 165.84 121.981 163.248C119.293 160.752 117.949 157.632 117.949 153.888C117.949 152.16 118.429 150.336 119.389 148.416C120.253 146.496 121.645 144.816 123.565 143.376C123.853 143.184 124.141 143.28 124.43 143.664C124.621 144.048 124.621 144.336 124.43 144.528C122.893 146.352 122.125 148.416 122.125 150.72C122.125 154.752 123.277 158.016 125.581 160.512C127.885 163.008 131.389 164.256 136.093 164.256C139.453 164.256 142.525 163.728 145.31 162.672C148.19 161.616 150.878 159.744 153.374 157.056C155.966 154.368 158.414 150.768 160.718 146.256C163.118 141.744 165.566 136.08 168.062 129.264C169.118 126.096 170.126 123.168 171.086 120.48C172.142 117.792 173.198 115.008 174.254 112.128C170.606 117.888 166.766 122.592 162.734 126.24C158.798 129.888 155.294 131.856 152.222 132.144C150.974 132.144 150.062 131.568 149.486 130.416C148.91 129.264 148.622 127.68 148.622 125.664C148.622 123.936 148.814 122.064 149.198 120.048C149.582 117.936 150.11 115.776 150.782 113.568C151.55 111.36 152.462 109.152 153.518 106.944C154.67 104.64 155.918 102.432 157.262 100.32C156.206 101.088 155.102 101.952 153.95 102.912C152.798 103.776 151.838 104.592 151.07 105.36C150.782 105.552 150.494 105.504 150.206 105.216C150.014 104.832 150.014 104.496 150.206 104.208C151.55 102.864 153.374 101.328 155.678 99.6C157.982 97.872 160.238 96.432 162.445 95.28C163.406 95.28 163.79 95.712 163.598 96.576C162.158 98.496 160.814 100.656 159.566 103.056C158.414 105.36 157.406 107.712 156.542 110.112C155.678 112.416 155.006 114.72 154.526 117.024C154.046 119.328 153.806 121.392 153.806 123.216C153.806 125.904 154.718 127.248 156.542 127.248C158.078 127.248 159.902 126.24 162.014 124.224C164.222 122.112 166.382 119.616 168.494 116.736C170.702 113.76 172.67 110.64 174.398 107.376C176.222 104.016 177.566 101.088 178.43 98.592ZM193.157 132C191.909 132 190.805 131.424 189.845 130.272C188.885 129.024 188.405 127.44 188.405 125.52C188.405 123.984 188.597 122.208 188.981 120.192C189.461 118.08 190.037 115.872 190.709 113.568C191.477 111.264 192.389 108.96 193.445 106.656C194.501 104.352 195.701 102.192 197.045 100.176C195.989 100.944 194.885 101.808 193.733 102.768C192.581 103.632 191.621 104.448 190.853 105.216C190.565 105.408 190.325 105.36 190.133 105.072C189.941 104.688 189.893 104.352 189.989 104.064C190.661 103.392 191.525 102.624 192.581 101.76C193.637 100.896 194.741 100.032 195.893 99.168C197.141 98.304 198.389 97.488 199.637 96.72C200.981 95.856 202.229 95.136 203.381 94.56C203.765 94.464 204.053 94.56 204.245 94.848C204.533 95.136 204.629 95.472 204.533 95.856C201.461 99.792 198.965 104.16 197.045 108.96C195.221 113.664 194.309 118.176 194.309 122.496C194.309 125.28 195.125 126.672 196.757 126.672C198.005 126.672 199.541 125.856 201.365 124.224C203.285 122.496 205.253 120.288 207.269 117.6C209.285 114.816 211.301 111.696 213.317 108.24C215.429 104.784 217.349 101.28 219.077 97.728C219.365 97.056 219.893 96.48 220.661 96C221.525 95.424 222.437 95.136 223.397 95.136C224.645 95.136 225.077 95.52 224.693 96.288C223.349 98.784 222.149 101.136 221.093 103.344C220.037 105.456 219.173 107.568 218.501 109.68C217.829 111.792 217.301 113.952 216.917 116.16C216.629 118.368 216.485 120.768 216.485 123.36C216.485 126.432 217.349 127.968 219.077 127.968C219.845 127.968 220.709 127.584 221.669 126.816C222.629 125.952 223.589 124.848 224.549 123.504C224.837 123.312 225.125 123.312 225.413 123.504C225.701 123.696 225.749 124.032 225.557 124.512C224.213 126.528 222.629 128.304 220.805 129.84C219.077 131.28 217.397 132 215.765 132C214.517 132 213.461 131.376 212.597 130.128C211.733 128.88 211.301 127.2 211.301 125.088C211.301 122.784 211.493 120.336 211.877 117.744C212.357 115.056 213.077 112.368 214.037 109.68C212.213 113.232 210.293 116.4 208.277 119.184C206.261 121.872 204.293 124.176 202.373 126.096C200.549 128.016 198.821 129.504 197.189 130.56C195.557 131.52 194.213 132 193.157 132ZM244.252 99.168C244.252 100.608 244.108 102.288 243.82 104.208C243.532 106.128 243.148 108.048 242.668 109.968C244.588 105.36 246.7 101.76 249.004 99.168C251.308 96.48 253.804 95.136 256.492 95.136C257.548 95.136 258.508 95.424 259.372 96C260.236 96.576 260.668 97.392 260.668 98.448C260.668 99.216 260.38 100.224 259.804 101.472C259.228 102.624 258.652 103.488 258.076 104.064C257.5 104.448 257.212 104.304 257.212 103.632C257.212 102 256.108 101.184 253.9 101.184C250.54 101.184 247.516 103.728 244.828 108.816C242.14 113.808 239.596 120.768 237.196 129.696C237.004 130.656 236.332 131.28 235.18 131.568C234.124 131.856 233.212 132 232.444 132C231.388 132 231.148 131.472 231.724 130.416C232.588 128.4 233.404 126.24 234.172 123.936C234.94 121.536 235.66 119.136 236.332 116.736C237.1 114.336 237.724 111.984 238.204 109.68C238.684 107.376 239.068 105.264 239.356 103.344C239.74 100.464 239.26 99.024 237.916 99.024C237.148 99.024 236.236 99.456 235.18 100.32C234.22 101.184 233.308 102.192 232.444 103.344C232.06 103.536 231.724 103.536 231.436 103.344C231.148 103.056 231.1 102.72 231.292 102.336C232.732 100.512 234.316 98.88 236.044 97.44C237.868 95.904 239.548 95.136 241.084 95.136C243.196 95.136 244.252 96.48 244.252 99.168ZM269.641 129.984C268.297 130.56 266.953 131.04 265.609 131.424C264.265 131.808 263.065 132 262.009 132C260.857 132 260.569 131.376 261.145 130.128C262.777 126.096 264.169 121.728 265.321 117.024C266.473 112.224 267.241 107.952 267.625 104.208C267.913 100.848 267.385 99.168 266.041 99.168C264.697 99.168 262.921 100.272 260.713 102.48C260.233 102.672 259.849 102.624 259.561 102.336C259.273 102.048 259.273 101.712 259.561 101.328C261.769 99.12 263.689 97.536 265.321 96.576C267.049 95.616 268.633 95.136 270.073 95.136C271.225 95.136 271.993 95.568 272.377 96.432C272.857 97.296 273.097 98.4 273.097 99.744C273.097 101.568 272.905 103.728 272.521 106.224C272.137 108.72 271.609 111.36 270.937 114.144C270.361 116.832 269.689 119.52 268.921 122.208C268.153 124.8 267.433 127.152 266.761 129.264C269.449 128.592 272.137 127.344 274.825 125.52C277.513 123.696 279.913 121.584 282.025 119.184C284.137 116.784 285.817 114.192 287.065 111.408C288.409 108.528 289.081 105.648 289.081 102.768C289.081 100.272 288.265 99.024 286.633 99.024C285.289 99.024 284.089 99.792 283.033 101.328C282.745 101.52 282.505 101.472 282.313 101.184C282.121 100.896 282.073 100.608 282.169 100.32C282.937 99.072 283.993 97.92 285.337 96.864C286.777 95.712 288.169 95.136 289.513 95.136C290.569 95.136 291.433 95.616 292.105 96.576C292.873 97.536 293.257 98.976 293.257 100.896C293.257 103.68 292.633 106.464 291.385 109.248C290.233 112.032 288.601 114.72 286.489 117.312C284.377 119.904 281.881 122.304 279.001 124.512C276.121 126.72 273.001 128.544 269.641 129.984ZM323.711 101.472C323.711 102.816 323.183 104.064 322.127 105.216C321.071 106.368 319.631 107.424 317.807 108.384C315.983 109.248 313.871 110.064 311.471 110.832C309.167 111.6 306.719 112.32 304.127 112.992C304.031 114.048 303.935 115.104 303.839 116.16C303.839 117.216 303.839 118.368 303.839 119.616C303.839 122.016 304.367 124.032 305.423 125.664C306.479 127.296 307.967 128.112 309.887 128.112C311.807 128.112 313.583 127.632 315.215 126.672C316.943 125.712 318.479 124.416 319.823 122.784C320.207 122.592 320.495 122.64 320.687 122.928C320.879 123.216 320.879 123.552 320.687 123.936C319.055 126.144 316.991 128.064 314.495 129.696C312.095 131.232 309.551 132 306.863 132C304.367 132 302.303 131.184 300.671 129.552C299.135 127.92 298.367 125.52 298.367 122.352C298.367 119.472 298.895 116.448 299.951 113.28C301.007 110.016 302.399 107.04 304.127 104.352C305.855 101.664 307.823 99.456 310.031 97.728C312.335 96 314.735 95.136 317.231 95.136C319.055 95.136 320.591 95.808 321.839 97.152C323.087 98.4 323.711 99.84 323.711 101.472ZM314.207 98.88C311.999 98.88 310.031 99.84 308.303 101.76C306.575 103.68 305.327 106.704 304.559 110.832C309.167 110.16 312.527 109.2 314.639 107.952C316.847 106.608 317.951 105.12 317.951 103.488C317.951 102.144 317.615 101.04 316.943 100.176C316.271 99.312 315.359 98.88 314.207 98.88ZM410.407 23.136C412.903 23.136 414.487 24.096 415.159 26.016C415.831 27.936 415.495 30.336 414.151 33.216C413.383 33.792 412.903 33.648 412.711 32.784C412.903 31.44 412.519 30.384 411.559 29.616C410.599 28.848 409.255 28.464 407.527 28.464C404.071 28.464 400.567 29.664 397.015 32.064C393.463 34.464 390.007 37.824 386.647 42.144C383.287 46.368 380.023 51.36 376.855 57.12C373.687 62.88 370.759 69.12 368.071 75.84C365.383 82.56 362.935 89.616 360.727 97.008C358.615 104.304 356.887 111.648 355.543 119.04C355.159 121.248 355.063 123.216 355.255 124.944C355.447 126.576 356.119 127.392 357.271 127.392C358.327 127.392 359.383 126.864 360.439 125.808C361.495 124.656 362.455 123.408 363.319 122.064C363.511 121.872 363.751 121.872 364.039 122.064C364.423 122.256 364.567 122.544 364.471 122.928C363.991 123.792 363.319 124.752 362.455 125.808C361.591 126.864 360.631 127.872 359.575 128.832C358.615 129.696 357.607 130.464 356.551 131.136C355.495 131.712 354.535 132 353.671 132C352.039 132 350.887 131.328 350.215 129.984C349.639 128.544 349.447 126.72 349.639 124.512C349.735 122.88 349.927 121.344 350.215 119.904C350.503 118.464 350.839 116.928 351.223 115.296C350.359 117.312 349.207 119.28 347.767 121.2C346.327 123.024 344.839 124.704 343.303 126.24C341.767 127.776 340.231 129.072 338.695 130.128C337.255 131.088 336.007 131.712 334.951 132C333.319 132 331.735 131.328 330.199 129.984C328.759 128.544 328.039 126.288 328.039 123.216C328.039 119.568 328.663 116.064 329.911 112.704C331.159 109.248 332.839 106.224 334.951 103.632C337.159 101.04 339.655 98.976 342.439 97.44C345.319 95.808 348.391 94.992 351.655 94.992C352.711 94.992 353.623 95.136 354.391 95.424C355.255 95.712 356.023 96.096 356.695 96.576C358.423 91.392 360.487 85.968 362.887 80.304C365.383 74.64 368.071 69.12 370.951 63.744C373.831 58.272 376.855 53.088 380.023 48.192C383.287 43.296 386.599 39.024 389.959 35.376C393.415 31.632 396.871 28.656 400.327 26.448C403.783 24.24 407.143 23.136 410.407 23.136ZM337.543 126.96C338.599 126.96 339.847 126.384 341.287 125.232C342.823 123.984 344.311 122.4 345.751 120.48C347.287 118.56 348.727 116.352 350.071 113.856C351.511 111.264 352.711 108.624 353.671 105.936C353.959 104.976 354.247 104.064 354.535 103.2C354.823 102.336 355.063 101.472 355.255 100.608C354.871 99.456 354.151 98.64 353.095 98.16C352.039 97.584 350.839 97.296 349.495 97.296C347.479 97.296 345.511 97.92 343.591 99.168C341.671 100.32 339.943 101.952 338.407 104.064C336.967 106.176 335.767 108.672 334.807 111.552C333.943 114.432 333.511 117.6 333.511 121.056C333.511 123.072 333.895 124.56 334.663 125.52C335.527 126.48 336.487 126.96 337.543 126.96ZM372.269 105.216C371.981 105.408 371.693 105.36 371.405 105.072C371.213 104.688 371.213 104.352 371.405 104.064C372.749 102.72 374.573 101.184 376.877 99.456C379.181 97.728 381.485 96.288 383.789 95.136C384.557 95.136 384.941 95.568 384.941 96.432C383.693 98.64 382.445 101.04 381.197 103.632C380.045 106.224 378.989 108.816 378.029 111.408C377.165 113.904 376.445 116.352 375.869 118.752C375.293 121.056 375.005 122.976 375.005 124.512C375.005 126.528 375.677 127.536 377.021 127.536C378.077 127.536 379.085 127.104 380.045 126.24C381.101 125.28 382.301 124.032 383.645 122.496C383.837 122.304 384.077 122.352 384.365 122.64C384.653 122.928 384.701 123.264 384.509 123.648C382.781 125.76 380.909 127.68 378.893 129.408C376.973 131.136 375.149 132 373.421 132C370.925 132 369.677 130.416 369.677 127.248C369.677 125.424 369.965 123.264 370.541 120.768C371.213 118.176 372.029 115.584 372.989 112.992C373.949 110.4 375.005 107.904 376.157 105.504C377.405 103.104 378.605 101.04 379.757 99.312C378.701 100.08 377.357 101.088 375.725 102.336C374.189 103.488 373.037 104.448 372.269 105.216ZM385.229 88.944C384.941 89.232 384.653 89.28 384.365 89.088C384.173 88.8 384.029 88.464 383.933 88.08C383.837 87.6 383.789 87.072 383.789 86.496C383.789 85.92 383.933 85.44 384.221 85.056C386.717 81.6 390.221 77.904 394.733 73.968C395.021 73.872 395.309 73.968 395.597 74.256C395.885 74.448 395.933 74.64 395.741 74.832C393.725 76.656 391.805 78.864 389.981 81.456C388.157 83.952 386.573 86.448 385.229 88.944ZM411.929 106.8C411.449 106.8 411.209 106.56 411.209 106.08C411.977 104.16 411.977 102.48 411.209 101.04C410.537 99.6 409.097 98.88 406.889 98.88C405.353 98.88 403.913 99.456 402.569 100.608C401.225 101.664 400.073 103.2 399.113 105.216C398.153 107.136 397.385 109.44 396.809 112.128C396.233 114.72 395.945 117.552 395.945 120.624C395.945 125.328 397.577 127.68 400.841 127.68C404.585 127.68 408.329 125.424 412.073 120.912C412.457 120.72 412.793 120.768 413.081 121.056C413.369 121.248 413.417 121.584 413.225 122.064C411.017 124.848 408.569 127.248 405.881 129.264C403.193 131.184 400.553 132.144 397.961 132.144C395.849 132.144 394.073 131.376 392.633 129.84C391.289 128.304 390.617 126.192 390.617 123.504C390.617 120.144 391.145 116.784 392.201 113.424C393.353 110.064 394.793 107.04 396.521 104.352C398.345 101.664 400.409 99.504 402.713 97.872C405.017 96.144 407.369 95.28 409.769 95.28C411.785 95.28 413.369 95.76 414.521 96.72C415.673 97.68 416.249 98.832 416.249 100.176C416.249 100.656 416.105 101.232 415.817 101.904C415.529 102.576 415.145 103.248 414.665 103.92C414.281 104.592 413.801 105.216 413.225 105.792C412.745 106.272 412.313 106.608 411.929 106.8Z" fill="white"/>
<path d="M277.456 9.024C277.776 9.024 278 9.184 278.128 9.504C278.256 9.824 278.224 10.112 278.032 10.368C274.96 13.056 272.176 16.288 269.68 20.064C267.248 23.776 265.136 27.712 263.344 31.872C261.552 36.032 260.176 40.288 259.216 44.64C258.256 48.928 257.776 52.96 257.776 56.736C257.776 60.192 258.192 62.912 259.024 64.896C259.856 66.816 261.008 67.776 262.48 67.776C264.912 67.776 267.312 65.984 269.68 62.4C269.872 62.208 270.064 62.208 270.256 62.4C270.512 62.528 270.608 62.72 270.544 62.976C269.84 64.064 269.04 65.152 268.144 66.24C267.312 67.264 266.416 68.224 265.456 69.12C264.496 69.952 263.536 70.656 262.576 71.232C261.68 71.744 260.848 72 260.08 72C258.416 72 256.944 71.04 255.664 69.12C254.384 67.136 253.744 64.128 253.744 60.096C253.744 56.768 254.064 53.184 254.704 49.344C255.408 45.504 256.432 41.664 257.776 37.824C259.12 33.92 260.784 30.144 262.768 26.496C264.816 22.848 267.152 19.52 269.776 16.512C265.808 19.456 261.744 23.008 257.584 27.168C253.488 31.264 249.52 35.68 245.68 40.416C241.904 45.088 238.384 49.92 235.12 54.912C231.856 59.84 229.136 64.608 226.96 69.216C226.704 69.664 226.224 70.24 225.52 70.944C224.816 71.648 224.272 72 223.888 72C223.44 72 223.216 71.776 223.216 71.328C224.432 61.408 226.16 52.608 228.4 44.928C230.704 37.184 233.424 30.048 236.56 23.52C231.44 31.2 226.416 38.048 221.488 44.064C216.56 50.08 211.632 55.168 206.704 59.328C201.776 63.424 196.752 66.56 191.632 68.736C186.512 70.912 181.2 72 175.696 72C173.072 72 170.736 71.584 168.688 70.752C166.64 69.92 164.88 68.768 163.408 67.296C161.936 65.824 160.816 64.096 160.048 62.112C159.28 60.128 158.896 57.952 158.896 55.584C158.896 52.512 159.6 49.696 161.008 47.136C162.48 44.576 164.624 42.56 167.44 41.088C167.696 40.96 167.856 41.024 167.92 41.28C168.048 41.536 168.048 41.792 167.92 42.048C165.936 43.328 164.528 44.8 163.696 46.464C162.928 48.128 162.544 50.304 162.544 52.992C162.544 55.104 162.896 57.12 163.6 59.04C164.304 60.896 165.328 62.528 166.672 63.936C168.08 65.344 169.776 66.464 171.76 67.296C173.808 68.128 176.176 68.544 178.864 68.544C184.496 68.544 189.872 67.264 194.992 64.704C200.176 62.08 205.2 58.496 210.064 53.952C214.928 49.408 219.696 44.096 224.368 38.016C229.04 31.936 233.712 25.376 238.384 18.336C233.904 16.8 229.2 15.52 224.272 14.496C219.408 13.408 214.736 12.864 210.256 12.864C205.456 12.864 201.456 14.272 198.256 17.088C195.056 19.84 193.104 24.064 192.4 29.76C192.272 30.08 192.08 30.208 191.824 30.144C191.632 30.08 191.504 29.888 191.44 29.568C192.144 23.296 194.448 18.496 198.352 15.168C202.256 11.84 207.344 10.176 213.616 10.176C216.24 10.176 218.896 10.368 221.584 10.752C224.272 11.072 226.896 11.52 229.456 12.096C232.016 12.608 234.448 13.216 236.752 13.92C239.12 14.56 241.264 15.2 243.184 15.84C243.312 15.776 243.44 15.744 243.568 15.744C243.76 15.744 243.92 15.712 244.048 15.648C244.304 15.648 244.432 15.776 244.432 16.032C244.496 16.288 244.464 16.512 244.336 16.704C243.44 17.28 242.704 17.984 242.128 18.816C241.552 19.648 240.912 20.736 240.208 22.08C237.008 28.48 234.448 35.2 232.528 42.24C230.672 49.216 229.104 56.288 227.824 63.456C230.832 58.144 234.288 52.832 238.192 47.52C242.096 42.208 246.224 37.152 250.576 32.352C254.928 27.552 259.408 23.168 264.016 19.2C268.624 15.168 273.104 11.776 277.456 9.024ZM296.92 65.952C297.048 65.824 297.208 65.824 297.4 65.952C297.592 66.08 297.656 66.272 297.592 66.528C296.248 68.384 294.904 69.76 293.56 70.656C292.28 71.552 291.192 72 290.296 72C289.72 72 289.24 71.712 288.856 71.136C288.536 70.56 288.312 69.792 288.184 68.832C288.12 67.808 288.152 66.688 288.28 65.472C288.472 64.192 288.76 62.88 289.144 61.536C287.416 64.224 285.592 66.56 283.672 68.544C281.752 70.464 279.896 71.616 278.104 72C276.952 72 275.96 71.456 275.128 70.368C274.36 69.216 273.976 67.456 273.976 65.088C273.976 62.976 274.392 60.896 275.224 58.848C276.12 56.736 277.304 54.848 278.776 53.184C280.248 51.456 281.944 50.08 283.864 49.056C285.784 48.032 287.8 47.52 289.912 47.52C291.064 47.52 292.056 47.648 292.888 47.904C293.72 48.16 294.488 48.544 295.192 49.056C295.576 48.736 296.088 48.448 296.728 48.192C297.432 47.872 298.072 47.712 298.648 47.712C298.968 47.712 299.064 47.872 298.936 48.192C297.464 49.984 296.184 51.968 295.096 54.144C294.072 56.32 293.272 58.432 292.696 60.48C292.12 62.528 291.736 64.352 291.544 65.952C291.416 67.488 291.544 68.544 291.928 69.12C292.248 69.568 292.824 69.6 293.656 69.216C294.488 68.768 295.576 67.68 296.92 65.952ZM280.216 68.736C280.92 68.736 281.816 68.256 282.904 67.296C284.056 66.272 285.24 64.96 286.456 63.36C287.672 61.76 288.856 59.968 290.008 57.984C291.224 55.936 292.28 53.888 293.176 51.84C292.92 51.008 292.312 50.336 291.352 49.824C290.456 49.312 289.4 49.056 288.184 49.056C286.776 49.056 285.432 49.44 284.152 50.208C282.936 50.912 281.848 51.936 280.888 53.28C279.928 54.56 279.16 56.096 278.584 57.888C278.008 59.68 277.72 61.664 277.72 63.84C277.72 65.248 277.944 66.432 278.392 67.392C278.904 68.288 279.512 68.736 280.216 68.736ZM312.563 47.424C313.843 47.424 314.899 47.648 315.731 48.096C316.627 48.48 317.075 48.928 317.075 49.44C317.075 50.144 316.915 50.944 316.595 51.84C316.339 52.736 316.051 53.472 315.731 54.048C315.603 54.176 315.411 54.208 315.155 54.144C314.963 54.016 314.899 53.856 314.963 53.664C315.155 53.216 315.283 52.704 315.347 52.128C315.411 51.552 315.379 51.04 315.251 50.592C314.931 49.312 314.035 48.672 312.563 48.672C311.475 48.672 310.579 48.992 309.875 49.632C309.235 50.272 308.915 51.232 308.915 52.512C308.915 53.536 309.171 54.528 309.683 55.488C310.259 56.384 310.867 57.312 311.507 58.272C312.211 59.168 312.819 60.16 313.331 61.248C313.907 62.272 314.195 63.424 314.195 64.704C314.195 66.752 313.459 68.48 311.987 69.888C310.579 71.296 308.435 72 305.555 72C303.571 72 301.939 71.648 300.659 70.944C299.379 70.24 298.739 69.504 298.739 68.736C298.739 68.16 299.091 67.296 299.795 66.144C300.499 64.992 301.299 64.064 302.195 63.36C302.387 63.232 302.547 63.264 302.675 63.456C302.867 63.648 302.899 63.84 302.771 64.032C302.259 64.544 301.875 65.152 301.619 65.856C301.363 66.496 301.299 67.072 301.427 67.584C301.619 68.672 302.099 69.504 302.867 70.08C303.699 70.592 304.659 70.848 305.747 70.848C307.411 70.848 308.691 70.4 309.587 69.504C310.547 68.608 311.027 67.456 311.027 66.048C311.027 64.832 310.739 63.712 310.163 62.688C309.587 61.6 308.947 60.576 308.243 59.616C307.603 58.592 306.995 57.6 306.419 56.64C305.907 55.616 305.651 54.528 305.651 53.376C305.651 51.712 306.259 50.304 307.475 49.152C308.755 48 310.451 47.424 312.563 47.424ZM343.233 65.952C343.361 65.824 343.521 65.824 343.713 65.952C343.905 66.08 343.969 66.272 343.905 66.528C342.561 68.384 341.217 69.76 339.873 70.656C338.593 71.552 337.505 72 336.609 72C336.033 72 335.553 71.712 335.169 71.136C334.849 70.56 334.625 69.792 334.497 68.832C334.433 67.808 334.465 66.688 334.593 65.472C334.785 64.192 335.073 62.88 335.457 61.536C333.729 64.224 331.905 66.56 329.984 68.544C328.065 70.464 326.209 71.616 324.417 72C323.265 72 322.273 71.456 321.441 70.368C320.673 69.216 320.289 67.456 320.289 65.088C320.289 62.976 320.705 60.896 321.537 58.848C322.433 56.736 323.617 54.848 325.089 53.184C326.561 51.456 328.257 50.08 330.177 49.056C332.097 48.032 334.113 47.52 336.225 47.52C337.377 47.52 338.369 47.648 339.201 47.904C340.033 48.16 340.801 48.544 341.505 49.056C341.889 48.736 342.401 48.448 343.041 48.192C343.745 47.872 344.385 47.712 344.961 47.712C345.281 47.712 345.377 47.872 345.249 48.192C343.777 49.984 342.497 51.968 341.409 54.144C340.385 56.32 339.585 58.432 339.009 60.48C338.433 62.528 338.049 64.352 337.857 65.952C337.729 67.488 337.857 68.544 338.241 69.12C338.561 69.568 339.137 69.6 339.969 69.216C340.801 68.768 341.889 67.68 343.233 65.952ZM326.529 68.736C327.233 68.736 328.129 68.256 329.217 67.296C330.369 66.272 331.553 64.96 332.769 63.36C333.985 61.76 335.169 59.968 336.321 57.984C337.537 55.936 338.593 53.888 339.489 51.84C339.233 51.008 338.625 50.336 337.665 49.824C336.769 49.312 335.713 49.056 334.497 49.056C333.089 49.056 331.745 49.44 330.465 50.208C329.249 50.912 328.161 51.936 327.201 53.28C326.241 54.56 325.473 56.096 324.897 57.888C324.321 59.68 324.033 61.664 324.033 63.84C324.033 65.248 324.257 66.432 324.705 67.392C325.217 68.288 325.825 68.736 326.529 68.736ZM353.595 50.784C352.891 51.296 352.187 51.808 351.483 52.32C350.843 52.832 350.235 53.408 349.659 54.048C349.403 54.112 349.211 54.048 349.083 53.856C349.019 53.664 349.019 53.472 349.083 53.28C349.979 52.384 351.163 51.392 352.635 50.304C354.171 49.152 355.675 48.224 357.147 47.52C357.787 47.52 358.043 47.808 357.915 48.384C355.675 57.28 353.179 64.736 350.427 70.752C347.739 76.768 344.859 81.6 341.787 85.248C338.715 88.96 335.547 91.584 332.283 93.12C328.955 94.72 325.595 95.52 322.203 95.52C319.963 95.52 318.395 94.656 317.499 92.928C316.603 91.2 316.507 88.928 317.211 86.112C317.339 85.984 317.499 85.888 317.691 85.824C317.883 85.824 318.011 85.952 318.075 86.208C317.883 87.168 317.883 88.064 318.075 88.896C318.203 89.728 318.555 90.464 319.131 91.104C319.707 91.808 320.507 92.352 321.531 92.736C322.491 93.12 323.739 93.312 325.275 93.312C327.835 93.312 330.363 92.672 332.859 91.392C335.291 90.176 337.723 87.968 340.155 84.768C342.523 81.632 344.827 77.312 347.067 71.808C349.307 66.304 351.483 59.296 353.595 50.784ZM358.299 43.392C357.915 43.712 357.595 43.52 357.339 42.816C357.147 42.048 357.243 41.408 357.627 40.896C358.523 39.616 359.515 38.4 360.603 37.248C361.755 36.032 363.067 34.784 364.539 33.504C364.731 33.376 364.923 33.408 365.115 33.6C365.307 33.728 365.339 33.856 365.211 33.984C363.867 35.2 362.587 36.672 361.371 38.4C360.219 40.064 359.195 41.728 358.299 43.392Z" fill="white"/>
</svg>
