<svg width="455" height="158" viewBox="0 0 455 158" fill="none" xmlns="http://www.w3.org/2000/svg">
<path d="M275.499 63.5C312.499 44 217 29.5 203 63.5C189 97.5 259.5 106 272.5 110.5C285.5 115 288.5 134.5 217.5 133C146.5 131.5 236.5 12 43 82C-150.5 152 411 159 438.5 131.5" stroke="#8A0000" stroke-width="4"/>
<path d="M33.456 118.024L35.568 117.544C37.36 116.968 38.704 116.2 39.6 115.24C40.56 114.216 41.04 112.616 41.04 110.44V66.472C41.04 65.704 40.88 65.192 40.56 64.936C40.24 64.616 39.76 64.456 39.12 64.456H34.128L33.072 61.192C35.824 60.232 39.408 59.368 43.824 58.6C48.24 57.768 52.496 57.352 56.592 57.352C68.688 57.352 77.392 60.36 82.704 66.376C88.016 72.392 90.672 80.232 90.672 89.896C90.672 95.784 89.584 101.096 87.408 105.832C85.232 110.504 81.968 114.216 77.616 116.968C73.328 119.656 68.048 121 61.776 121H34.512L33.456 118.024ZM59.088 116.584C73.872 116.584 81.264 107.624 81.264 89.704C81.264 84.776 80.4 80.232 78.672 76.072C77.008 71.912 74.448 68.552 70.992 65.992C67.536 63.432 63.28 62.152 58.224 62.152C52.528 62.152 49.68 63.528 49.68 66.28V105.736C49.68 109.896 50.544 112.744 52.272 114.28C54 115.816 56.272 116.584 59.088 116.584ZM112.76 122.248C108.728 122.248 105.208 121.32 102.2 119.464C99.1923 117.608 96.8563 115.016 95.1923 111.688C93.5283 108.296 92.6963 104.392 92.6963 99.976C92.6963 95.368 93.6243 91.304 95.4803 87.784C97.3363 84.264 99.9603 81.544 103.352 79.624C106.808 77.704 110.776 76.744 115.256 76.744C119.992 76.744 123.64 77.992 126.2 80.488C128.824 82.984 130.136 85.992 130.136 89.512C130.136 91.944 129.464 94.28 128.12 96.52C126.84 98.76 124.92 100.584 122.36 101.992C119.864 103.4 116.92 104.104 113.528 104.104C111.608 104.104 109.528 103.784 107.288 103.144C105.048 102.44 103.928 101.416 103.928 100.072C103.928 99.56 104.056 99.112 104.312 98.728C104.568 98.344 104.856 98.152 105.176 98.152C105.368 98.152 105.944 98.344 106.904 98.728C107.928 99.048 109.24 99.208 110.84 99.208C114.36 99.208 117.08 98.248 119 96.328C120.92 94.408 121.88 92.104 121.88 89.416C121.88 87.112 121.112 85.128 119.576 83.464C118.104 81.8 116.12 80.968 113.624 80.968C109.848 80.968 106.904 82.632 104.792 85.96C102.744 89.224 101.72 93.896 101.72 99.976C101.72 105.16 102.808 109.224 104.984 112.168C107.224 115.048 110.424 116.488 114.584 116.488C119.704 116.488 123.928 114.824 127.256 111.496C127.448 111.304 127.704 111.208 128.024 111.208C128.536 111.208 129.048 111.464 129.56 111.976C130.136 112.488 130.424 113.032 130.424 113.608C130.424 113.8 130.36 113.992 130.232 114.184C130.104 114.312 130.04 114.408 130.04 114.472C127.864 117.032 125.272 118.984 122.264 120.328C119.32 121.608 116.152 122.248 112.76 122.248ZM174.442 122.248C172.074 122.248 170.378 121.544 169.354 120.136C168.33 118.664 167.818 116.296 167.818 113.032V92.296C167.818 89.352 167.178 87.144 165.898 85.672C164.618 84.136 162.73 83.368 160.234 83.368C157.738 83.368 155.53 84.36 153.61 86.344C151.754 88.328 150.314 91.112 149.29 94.696C148.266 98.28 147.754 102.408 147.754 107.08C147.754 109.768 147.946 111.944 148.33 113.608C148.778 115.272 149.514 116.84 150.538 118.312L151.594 119.656L150.538 121H135.274L134.41 118.312L136.042 117.832C137.578 117.576 138.57 117 139.018 116.104C139.53 115.144 139.786 113.544 139.786 111.304V86.92C139.786 86.216 139.658 85.736 139.402 85.48C139.146 85.16 138.698 85 138.058 85H134.314L133.45 82.696C135.114 81.16 137.034 79.912 139.21 78.952C141.386 77.992 143.306 77.512 144.97 77.512C145.802 77.512 146.474 77.768 146.986 78.28C147.498 78.792 147.754 79.432 147.754 80.2V89.704C149.226 85.928 151.466 82.824 154.474 80.392C157.482 77.96 160.65 76.744 163.978 76.744C168.01 76.744 170.954 77.992 172.81 80.488C174.73 82.984 175.69 86.92 175.69 92.296V113.32C175.69 115.304 176.554 116.296 178.282 116.296C179.69 116.296 181.13 115.688 182.602 114.472L184.234 116.68C182.762 118.344 181.13 119.688 179.338 120.712C177.546 121.736 175.914 122.248 174.442 122.248ZM194.317 69.448C193.357 69.448 192.237 68.776 190.957 67.432C189.677 66.088 189.037 64.872 189.037 63.784C189.037 62.696 189.645 61.48 190.861 60.136C192.141 58.792 193.293 58.12 194.317 58.12C195.405 58.12 196.589 58.792 197.869 60.136C199.149 61.48 199.789 62.696 199.789 63.784C199.789 64.872 199.149 66.088 197.869 67.432C196.589 68.776 195.405 69.448 194.317 69.448ZM197.197 122.248C194.829 122.248 193.101 121.544 192.013 120.136C190.989 118.664 190.477 116.296 190.477 113.032V86.152C190.477 85.384 190.349 84.84 190.093 84.52C189.837 84.2 189.389 84.04 188.749 84.04H184.813L184.141 81.928C185.805 80.392 187.693 79.144 189.805 78.184C191.981 77.224 193.869 76.744 195.469 76.744C196.301 76.744 196.973 77 197.485 77.512C198.061 77.96 198.349 78.568 198.349 79.336V113.32C198.349 115.304 199.213 116.296 200.941 116.296C202.285 116.296 203.757 115.688 205.357 114.472L206.989 116.68C205.389 118.344 203.693 119.688 201.901 120.712C200.173 121.736 198.605 122.248 197.197 122.248Z" fill="url(#paint0_linear)"/>
<path d="M303.584 122.248C300.768 122.248 298.144 121.448 295.712 119.848C293.344 118.184 291.424 115.784 289.952 112.648C288.544 109.448 287.84 105.576 287.84 101.032C287.84 93.544 289.856 87.624 293.888 83.272C297.984 78.92 303.488 76.744 310.4 76.744C312.704 76.744 315.84 77.096 319.808 77.8C322.752 78.312 325.408 78.664 327.776 78.856L328.928 79.912L327.68 81.544C327.232 82.312 326.912 82.92 326.72 83.368C326.592 83.752 326.528 84.296 326.528 85V113.32C326.528 115.112 327.456 116.008 329.312 116.008C330.72 116.008 332.16 115.496 333.632 114.472L335.264 116.68C333.728 118.408 332.096 119.784 330.368 120.808C328.64 121.768 327.072 122.248 325.664 122.248C323.232 122.248 321.472 121.544 320.384 120.136C319.296 118.664 318.752 116.296 318.752 113.032C316.448 116.424 314.048 118.824 311.552 120.232C309.12 121.576 306.464 122.248 303.584 122.248ZM306.944 115.432C311.808 115.432 315.744 112.808 318.752 107.56V84.04C316.256 82.376 313.44 81.544 310.304 81.544C306.144 81.544 302.88 83.112 300.512 86.248C298.208 89.32 297.056 93.704 297.056 99.4C297.056 104.904 297.984 108.968 299.84 111.592C301.76 114.152 304.128 115.432 306.944 115.432ZM346.87 122.248C344.438 122.248 342.678 121.544 341.59 120.136C340.566 118.664 340.054 116.296 340.054 113.032V62.344C340.054 61.64 339.926 61.16 339.67 60.904C339.414 60.584 338.966 60.424 338.326 60.424H334.582L333.718 58.216C335.382 56.68 337.302 55.432 339.478 54.472C341.654 53.448 343.606 52.936 345.334 52.936C346.166 52.936 346.838 53.192 347.35 53.704C347.862 54.216 348.118 54.888 348.118 55.72L347.926 113.32C347.926 114.28 348.15 115.016 348.598 115.528C349.046 116.04 349.686 116.296 350.518 116.296C352.118 116.296 353.558 115.688 354.838 114.472L356.566 116.68C355.094 118.344 353.462 119.688 351.67 120.712C349.878 121.736 348.278 122.248 346.87 122.248ZM378.115 122.248C371.587 122.248 366.403 120.2 362.563 116.104C358.723 111.944 356.803 106.376 356.803 99.4C356.803 92.424 358.723 86.92 362.563 82.888C366.403 78.792 371.587 76.744 378.115 76.744C382.403 76.744 386.147 77.672 389.347 79.528C392.547 81.384 395.011 84.008 396.739 87.4C398.467 90.792 399.331 94.792 399.331 99.4C399.331 104.008 398.435 108.04 396.643 111.496C394.915 114.952 392.451 117.608 389.251 119.464C386.051 121.32 382.339 122.248 378.115 122.248ZM377.923 117.544C381.571 117.544 384.515 115.912 386.755 112.648C389.059 109.32 390.211 104.968 390.211 99.592C390.211 96.84 389.827 94.088 389.059 91.336C388.291 88.52 387.011 86.152 385.219 84.232C383.491 82.248 381.219 81.256 378.403 81.256C374.627 81.256 371.587 82.92 369.283 86.248C367.043 89.576 365.923 93.992 365.923 99.496C365.923 105 366.979 109.384 369.091 112.648C371.267 115.912 374.211 117.544 377.923 117.544ZM442.861 122.248C440.493 122.248 438.797 121.544 437.773 120.136C436.749 118.664 436.237 116.296 436.237 113.032V92.296C436.237 89.352 435.597 87.144 434.317 85.672C433.037 84.136 431.149 83.368 428.653 83.368C426.157 83.368 423.949 84.36 422.029 86.344C420.173 88.328 418.733 91.112 417.709 94.696C416.685 98.28 416.173 102.408 416.173 107.08C416.173 109.768 416.365 111.944 416.749 113.608C417.197 115.272 417.933 116.84 418.957 118.312L420.013 119.656L418.957 121H403.693L402.829 118.312L404.461 117.832C405.997 117.576 406.989 117 407.437 116.104C407.949 115.144 408.205 113.544 408.205 111.304V86.92C408.205 86.216 408.077 85.736 407.821 85.48C407.565 85.16 407.117 85 406.477 85H402.733L401.869 82.696C403.533 81.16 405.453 79.912 407.629 78.952C409.805 77.992 411.725 77.512 413.389 77.512C414.221 77.512 414.893 77.768 415.405 78.28C415.917 78.792 416.173 79.432 416.173 80.2V89.704C417.645 85.928 419.885 82.824 422.893 80.392C425.901 77.96 429.069 76.744 432.397 76.744C436.429 76.744 439.373 77.992 441.229 80.488C443.149 82.984 444.109 86.92 444.109 92.296V113.32C444.109 115.304 444.973 116.296 446.701 116.296C448.109 116.296 449.549 115.688 451.021 114.472L452.653 116.68C451.181 118.344 449.549 119.688 447.757 120.712C445.965 121.736 444.333 122.248 442.861 122.248Z" fill="url(#paint1_linear)"/>
<path d="M176.427 61C175.692 51.0393 171.863 51.3546 173.333 41.5854C174.802 31.8163 176.272 23.9626 177.374 25.112C178.476 26.2613 180.343 46.5658 179.945 51.5461C179.547 56.5265 176.427 61 176.427 61Z" fill="#C4C4C4" fill-opacity="0.29"/>
<path d="M391.854 69C390.384 49.9086 382.727 50.513 385.666 31.7887C388.605 13.0645 391.543 -1.98826 393.748 0.214584C395.952 2.41743 399.687 41.3345 398.891 50.8801C398.095 60.4257 391.854 69 391.854 69Z" fill="#C4C4C4" fill-opacity="0.29"/>
<defs>
<linearGradient id="paint0_linear" x1="119.5" y1="16" x2="119.5" y2="158" gradientUnits="userSpaceOnUse">
<stop offset="0.619792"/>
<stop offset="0.734375" stop-opacity="0"/>
</linearGradient>
<linearGradient id="paint1_linear" x1="369.5" y1="16" x2="369.5" y2="158" gradientUnits="userSpaceOnUse">
<stop offset="0.619792"/>
<stop offset="0.734375" stop-opacity="0"/>
</linearGradient>
</defs>
</svg>
