<svg width="183" height="142" viewBox="0 0 183 142" fill="none" xmlns="http://www.w3.org/2000/svg">
<path d="M171.756 47.4184C208.756 27.9184 113.257 13.4184 99.2569 47.4184C85.2569 81.4184 155.757 89.9184 168.757 94.4184C181.757 98.9184 184.757 111.418 113.757 109.918C42.7569 108.418 -120.743 114.418 162.257 121.418" stroke="#8A0000" stroke-width="4"/>
<path d="M37.456 102.024L39.568 101.544C41.36 100.968 42.704 100.2 43.6 99.24C44.56 98.216 45.04 96.616 45.04 94.44V50.472C45.04 49.704 44.88 49.192 44.56 48.936C44.24 48.616 43.76 48.456 43.12 48.456H38.128L37.072 45.192C39.824 44.232 43.408 43.368 47.824 42.6C52.24 41.768 56.496 41.352 60.592 41.352C72.688 41.352 81.392 44.36 86.704 50.376C92.016 56.392 94.672 64.232 94.672 73.896C94.672 79.784 93.584 85.096 91.408 89.832C89.232 94.504 85.968 98.216 81.616 100.968C77.328 103.656 72.048 105 65.776 105H38.512L37.456 102.024ZM63.088 100.584C77.872 100.584 85.264 91.624 85.264 73.704C85.264 68.776 84.4 64.232 82.672 60.072C81.008 55.912 78.448 52.552 74.992 49.992C71.536 47.432 67.28 46.152 62.224 46.152C56.528 46.152 53.68 47.528 53.68 50.28V89.736C53.68 93.896 54.544 96.744 56.272 98.28C58 99.816 60.272 100.584 63.088 100.584Z" fill="url(#paint0_linear)"/>
<defs>
<linearGradient id="paint0_linear" x1="66" y1="0" x2="66" y2="142" gradientUnits="userSpaceOnUse">
<stop offset="0.619792"/>
<stop offset="0.734375" stop-opacity="0"/>
</linearGradient>
</defs>
</svg>
