<svg width="252" height="180" viewBox="0 0 252 180" fill="none" xmlns="http://www.w3.org/2000/svg">
<path d="M144.576 23.76C144.768 23.952 144.864 24.24 144.864 24.624C144.864 24.912 144.624 25.344 144.144 25.92C140.976 29.376 138.144 33.36 135.648 37.872C133.152 42.288 130.992 47.136 129.168 52.416C127.44 57.696 126.096 63.264 125.136 69.12C124.176 74.976 123.696 80.976 123.696 87.12C123.696 91.728 124.272 95.328 125.424 97.92C126.576 100.416 128.544 101.664 131.328 101.664C135.072 101.664 138.72 98.976 142.272 93.6C142.56 93.408 142.848 93.408 143.136 93.6C143.424 93.792 143.472 94.08 143.28 94.464C142.32 96.096 141.168 97.728 139.824 99.36C138.576 100.896 137.232 102.336 135.792 103.68C134.352 104.928 132.912 105.984 131.472 106.848C130.128 107.616 128.88 108 127.728 108C124.56 108 122.112 106.416 120.384 103.248C118.752 99.984 117.936 95.856 117.936 90.864C117.936 83.184 118.8 75.36 120.528 67.392C116.016 67.392 111.552 67.44 107.136 67.536C102.816 67.632 98.544 67.776 94.32 67.968C91.152 71.328 88.08 74.496 85.104 77.472C82.224 80.448 79.392 83.184 76.608 85.68C68.928 92.688 61.008 98.16 52.848 102.096C44.784 106.032 35.904 108 26.208 108C21.312 108 17.328 106.848 14.256 104.544C11.28 102.144 9.216 99.168 8.064 95.616C7.008 92.064 6.912 88.176 7.776 83.952C8.736 79.632 10.8 75.6 13.968 71.856C14.256 71.664 14.592 71.712 14.976 72C15.36 72.192 15.504 72.624 15.408 73.296C13.104 75.792 11.712 78.672 11.232 81.936C10.848 85.2 11.376 88.32 12.816 91.296C14.256 94.272 16.704 96.768 20.16 98.784C23.616 100.8 28.128 101.808 33.696 101.808C40.992 101.808 48.336 100.08 55.728 96.624C63.216 93.168 70.272 88.32 76.896 82.08C79.008 80.16 81.168 78.048 83.376 75.744C85.68 73.344 88.08 70.8 90.576 68.112C83.952 68.592 78 69.168 72.72 69.84C72.24 69.744 72.144 69.504 72.432 69.12C72.72 68.736 73.152 68.352 73.728 67.968C74.4 67.488 75.12 67.104 75.888 66.816C76.752 66.432 77.568 66.192 78.336 66.096C79.488 66 81.36 65.952 83.952 65.952C86.64 65.856 89.664 65.76 93.024 65.664C98.496 59.904 104.592 53.712 111.312 47.088C118.128 40.464 126 33.648 134.928 26.64C128.496 24.528 121.824 22.8 114.912 21.456C108.096 20.016 101.52 19.296 95.184 19.296C87.984 19.296 81.984 21.408 77.184 25.632C72.48 29.76 69.552 36.096 68.4 44.64C68.208 45.12 67.92 45.312 67.536 45.216C67.248 45.12 67.056 44.832 66.96 44.352C68.112 34.944 71.616 27.744 77.472 22.752C83.328 17.76 90.912 15.264 100.224 15.264C104.16 15.264 108.144 15.552 112.176 16.128C116.208 16.608 120.144 17.28 123.984 18.144C127.824 18.912 131.472 19.824 134.928 20.88C138.48 21.84 141.696 22.8 144.576 23.76ZM120.96 65.52C122.592 58.512 124.848 51.696 127.728 45.072C130.608 38.352 134.064 32.256 138.096 26.784C129.648 33.6 122.064 40.32 115.344 46.944C108.624 53.472 102.384 59.712 96.624 65.664C101.232 65.568 105.792 65.52 110.304 65.52C114.816 65.52 118.368 65.52 120.96 65.52Z" fill="#570000"/>
<path d="M250.184 49.536C250.664 49.536 251 49.776 251.192 50.256C251.384 50.736 251.336 51.168 251.048 51.552C246.44 55.584 242.264 60.432 238.52 66.096C234.872 71.664 231.704 77.568 229.016 83.808C226.328 90.048 224.264 96.432 222.824 102.96C221.384 109.392 220.664 115.44 220.664 121.104C220.664 126.288 221.288 130.368 222.536 133.344C223.784 136.224 225.512 137.664 227.72 137.664C231.368 137.664 234.968 134.976 238.52 129.6C238.808 129.312 239.096 129.312 239.384 129.6C239.768 129.792 239.912 130.08 239.816 130.464C238.76 132.096 237.56 133.728 236.216 135.36C234.968 136.896 233.624 138.336 232.184 139.68C230.744 140.928 229.304 141.984 227.864 142.848C226.52 143.616 225.272 144 224.12 144C221.624 144 219.416 142.56 217.496 139.68C215.576 136.704 214.616 132.192 214.616 126.144C214.616 121.152 215.096 115.776 216.056 110.016C217.112 104.256 218.648 98.496 220.664 92.736C222.68 86.88 225.176 81.216 228.152 75.744C231.224 70.272 234.728 65.28 238.664 60.768C232.712 65.184 226.616 70.512 220.376 76.752C214.232 82.896 208.28 89.52 202.52 96.624C196.856 103.632 191.576 110.88 186.68 118.368C181.784 125.76 177.704 132.912 174.44 139.824C174.056 140.496 173.336 141.36 172.28 142.416C171.224 143.472 170.408 144 169.832 144C169.16 144 168.824 143.664 168.824 142.992C170.648 128.112 173.24 114.912 176.6 103.392C180.056 91.776 184.136 81.072 188.84 71.28C181.16 82.8 173.624 93.072 166.232 102.096C158.84 111.12 151.448 118.752 144.056 124.992C136.664 131.136 129.128 135.84 121.448 139.104C113.768 142.368 105.8 144 97.544 144C93.608 144 90.104 143.376 87.032 142.128C83.96 140.88 81.32 139.152 79.112 136.944C76.904 134.736 75.224 132.144 74.072 129.168C72.92 126.192 72.344 122.928 72.344 119.376C72.344 114.768 73.4 110.544 75.512 106.704C77.72 102.864 80.936 99.84 85.16 97.632C85.544 97.44 85.784 97.536 85.88 97.92C86.072 98.304 86.072 98.688 85.88 99.072C82.904 100.992 80.792 103.2 79.544 105.696C78.392 108.192 77.816 111.456 77.816 115.488C77.816 118.656 78.344 121.68 79.4 124.56C80.456 127.344 81.992 129.792 84.008 131.904C86.12 134.016 88.664 135.696 91.64 136.944C94.712 138.192 98.264 138.816 102.296 138.816C110.744 138.816 118.808 136.896 126.488 133.056C134.264 129.12 141.8 123.744 149.096 116.928C156.392 110.112 163.544 102.144 170.552 93.024C177.56 83.904 184.568 74.064 191.576 63.504C184.856 61.2 177.8 59.28 170.408 57.744C163.112 56.112 156.104 55.296 149.384 55.296C142.184 55.296 136.184 57.408 131.384 61.632C126.584 65.76 123.656 72.096 122.6 80.64C122.408 81.12 122.12 81.312 121.736 81.216C121.448 81.12 121.256 80.832 121.16 80.352C122.216 70.944 125.672 63.744 131.528 58.752C137.384 53.76 145.016 51.264 154.424 51.264C158.36 51.264 162.344 51.552 166.376 52.128C170.408 52.608 174.344 53.28 178.184 54.144C182.024 54.912 185.672 55.824 189.128 56.88C192.68 57.84 195.896 58.8 198.776 59.76C198.968 59.664 199.16 59.616 199.352 59.616C199.64 59.616 199.88 59.568 200.072 59.472C200.456 59.472 200.648 59.664 200.648 60.048C200.744 60.432 200.696 60.768 200.504 61.056C199.16 61.92 198.056 62.976 197.192 64.224C196.328 65.472 195.368 67.104 194.312 69.12C189.512 78.72 185.672 88.8 182.792 99.36C180.008 109.824 177.656 120.432 175.736 131.184C180.248 123.216 185.432 115.248 191.288 107.28C197.144 99.312 203.336 91.728 209.864 84.528C216.392 77.328 223.112 70.752 230.024 64.8C236.936 58.752 243.656 53.664 250.184 49.536Z" fill="#570000"/>
</svg>
