<svg width="137" height="48" viewBox="0 0 137 48" fill="none" xmlns="http://www.w3.org/2000/svg">
<path d="M83.347 18.9802C94.4063 13.1516 65.8615 8.81758 61.6769 18.9802C57.4923 29.1429 78.5648 31.6835 82.4505 33.0286C86.3363 34.3736 87.233 40.2022 66.011 39.7538C44.789 39.3055 71.6901 3.58681 13.8527 24.5099C-43.9846 45.433 123.848 47.5253 132.068 39.3055" stroke="#8A0000"/>
<path d="M11 35.2775L11.6313 35.134C12.1669 34.9619 12.5687 34.7323 12.8365 34.4454C13.1234 34.1393 13.2669 33.661 13.2669 33.0106V19.8686C13.2669 19.639 13.2191 19.486 13.1234 19.4094C13.0278 19.3138 12.8843 19.266 12.693 19.266H11.2009L10.8853 18.2904C11.7078 18.0034 12.7791 17.7452 14.099 17.5156C15.419 17.2669 16.6911 17.1426 17.9154 17.1426C21.5309 17.1426 24.1326 18.0417 25.7203 19.8399C27.3081 21.638 28.102 23.9814 28.102 26.87C28.102 28.6299 27.7768 30.2177 27.1263 31.6333C26.4759 33.0298 25.5003 34.1393 24.1995 34.9619C22.9178 35.7653 21.3396 36.167 19.4649 36.167H11.3157L11 35.2775ZM18.6615 34.8471C23.0804 34.8471 25.2899 32.1689 25.2899 26.8126C25.2899 25.3396 25.0316 23.9814 24.5151 22.738C24.0178 21.4946 23.2526 20.4903 22.2196 19.7251C21.1866 18.9599 19.9145 18.5773 18.4032 18.5773C16.7007 18.5773 15.8494 18.9886 15.8494 19.8112V31.6046C15.8494 32.848 16.1077 33.6993 16.6242 34.1584C17.1407 34.6175 17.8198 34.8471 18.6615 34.8471ZM34.7041 36.5401C33.4989 36.5401 32.4468 36.2627 31.5477 35.7079C30.6487 35.1532 29.9505 34.3784 29.4531 33.3837C28.9557 32.3698 28.707 31.2029 28.707 29.8829C28.707 28.5056 28.9844 27.2909 29.5392 26.2387C30.0939 25.1866 30.8782 24.3736 31.892 23.7997C32.925 23.2258 34.1111 22.9389 35.4501 22.9389C36.8657 22.9389 37.9561 23.3119 38.7213 24.058C39.5056 24.804 39.8978 25.7031 39.8978 26.7552C39.8978 27.4822 39.6969 28.1804 39.2952 28.8499C38.9126 29.5195 38.3387 30.0647 37.5735 30.4855C36.8275 30.9064 35.9475 31.1168 34.9336 31.1168C34.3597 31.1168 33.738 31.0212 33.0685 30.8299C32.399 30.6194 32.0642 30.3134 32.0642 29.9116C32.0642 29.7586 32.1024 29.6247 32.179 29.5099C32.2555 29.3951 32.3416 29.3377 32.4372 29.3377C32.4946 29.3377 32.6668 29.3951 32.9537 29.5099C33.2598 29.6056 33.652 29.6534 34.1302 29.6534C35.1823 29.6534 35.9953 29.3664 36.5692 28.7925C37.1431 28.2187 37.4301 27.53 37.4301 26.7265C37.4301 26.0379 37.2005 25.4449 36.7414 24.9475C36.3014 24.4501 35.7084 24.2014 34.9623 24.2014C33.8337 24.2014 32.9537 24.6988 32.3224 25.6935C31.7103 26.6692 31.4042 28.0656 31.4042 29.8829C31.4042 31.4324 31.7294 32.6472 32.3798 33.5271C33.0494 34.388 34.0059 34.8184 35.2493 34.8184C36.7797 34.8184 38.0422 34.321 39.037 33.3263C39.0943 33.2689 39.1709 33.2402 39.2665 33.2402C39.4195 33.2402 39.5726 33.3167 39.7256 33.4697C39.8978 33.6228 39.9839 33.7854 39.9839 33.9576C39.9839 34.0149 39.9647 34.0723 39.9265 34.1297C39.8882 34.168 39.8691 34.1967 39.8691 34.2158C39.2187 34.981 38.4439 35.5644 37.5448 35.9662C36.6649 36.3488 35.718 36.5401 34.7041 36.5401ZM53.1409 36.5401C52.4331 36.5401 51.9262 36.3296 51.6201 35.9088C51.314 35.4688 51.161 34.761 51.161 33.7854V27.5874C51.161 26.7074 50.9697 26.0474 50.5871 25.6075C50.2045 25.1483 49.6402 24.9188 48.8941 24.9188C48.1481 24.9188 47.4881 25.2153 46.9142 25.8083C46.3594 26.4013 45.929 27.2335 45.6229 28.3047C45.3169 29.376 45.1638 30.6099 45.1638 32.0063C45.1638 32.8098 45.2212 33.4602 45.336 33.9576C45.4699 34.4549 45.6899 34.9236 45.996 35.3636L46.3116 35.7653L45.996 36.167H41.4335L41.1753 35.3636L41.6631 35.2201C42.1222 35.1436 42.4187 34.9714 42.5526 34.7036C42.7057 34.4167 42.7822 33.9384 42.7822 33.2689V25.9805C42.7822 25.7701 42.7439 25.6266 42.6674 25.5501C42.5909 25.4544 42.457 25.4066 42.2657 25.4066H41.1466L40.8883 24.7179C41.3857 24.2588 41.9596 23.8858 42.61 23.5988C43.2604 23.3119 43.8343 23.1684 44.3317 23.1684C44.5804 23.1684 44.7812 23.2449 44.9343 23.398C45.0873 23.551 45.1638 23.7423 45.1638 23.9719V26.8126C45.6038 25.684 46.2733 24.7562 47.1724 24.0293C48.0715 23.3023 49.0185 22.9389 50.0132 22.9389C51.2184 22.9389 52.0983 23.3119 52.6531 24.058C53.227 24.804 53.5139 25.9805 53.5139 27.5874V33.8715C53.5139 34.4645 53.7722 34.761 54.2887 34.761C54.7095 34.761 55.1399 34.5793 55.5799 34.2158L56.0677 34.8758C55.6278 35.3732 55.1399 35.7749 54.6043 36.0809C54.0687 36.387 53.5809 36.5401 53.1409 36.5401ZM59.0816 20.7581C58.7946 20.7581 58.4598 20.5572 58.0773 20.1555C57.6947 19.7538 57.5034 19.3903 57.5034 19.0651C57.5034 18.7399 57.6851 18.3764 58.0486 17.9747C58.4312 17.573 58.7755 17.3721 59.0816 17.3721C59.4068 17.3721 59.7607 17.573 60.1433 17.9747C60.5258 18.3764 60.7171 18.7399 60.7171 19.0651C60.7171 19.3903 60.5258 19.7538 60.1433 20.1555C59.7607 20.5572 59.4068 20.7581 59.0816 20.7581ZM59.9424 36.5401C59.2346 36.5401 58.7181 36.3296 58.3929 35.9088C58.0868 35.4688 57.9338 34.761 57.9338 33.7854V25.7509C57.9338 25.5214 57.8955 25.3588 57.819 25.2631C57.7425 25.1675 57.6086 25.1196 57.4173 25.1196H56.2408L56.0399 24.4884C56.5373 24.0293 57.1016 23.6562 57.7329 23.3693C58.3833 23.0823 58.9477 22.9389 59.4259 22.9389C59.6746 22.9389 59.8754 23.0154 60.0285 23.1684C60.2006 23.3023 60.2867 23.4841 60.2867 23.7136V33.8715C60.2867 34.4645 60.545 34.761 61.0615 34.761C61.4632 34.761 61.9032 34.5793 62.3814 34.2158L62.8692 34.8758C62.391 35.3732 61.8841 35.7749 61.3484 36.0809C60.8319 36.387 60.3632 36.5401 59.9424 36.5401Z" fill="url(#paint0_linear)"/>
<path d="M91.7416 36.5401C90.8999 36.5401 90.1156 36.3009 89.3886 35.8227C88.6808 35.3253 88.107 34.608 87.667 33.6706C87.2461 32.7141 87.0357 31.5568 87.0357 30.1986C87.0357 27.9604 87.6383 26.1909 88.8434 24.8901C90.0677 23.5893 91.7129 22.9389 93.7789 22.9389C94.4676 22.9389 95.4049 23.0441 96.591 23.2545C97.4709 23.4075 98.2648 23.5128 98.9726 23.5701L99.3169 23.8858L98.9439 24.3736C98.81 24.6031 98.7144 24.7849 98.657 24.9188C98.6187 25.0336 98.5996 25.1962 98.5996 25.4066V33.8715C98.5996 34.4071 98.877 34.6749 99.4317 34.6749C99.8526 34.6749 100.283 34.5219 100.723 34.2158L101.211 34.8758C100.752 35.3923 100.264 35.8036 99.7474 36.1096C99.2309 36.3966 98.7622 36.5401 98.3413 36.5401C97.6144 36.5401 97.0883 36.3296 96.7631 35.9088C96.4379 35.4688 96.2753 34.761 96.2753 33.7854C95.5867 34.7993 94.8693 35.5166 94.1232 35.9375C93.3963 36.3392 92.6024 36.5401 91.7416 36.5401ZM92.7459 34.5028C94.1998 34.5028 95.3762 33.7184 96.2753 32.1498V25.1197C95.5293 24.6223 94.6876 24.3736 93.7502 24.3736C92.5068 24.3736 91.5312 24.8423 90.8234 25.7796C90.1347 26.6978 89.7904 28.0082 89.7904 29.7108C89.7904 31.3559 90.0677 32.5707 90.6225 33.355C91.1964 34.1202 91.9042 34.5028 92.7459 34.5028ZM104.68 36.5401C103.953 36.5401 103.427 36.3296 103.102 35.9088C102.796 35.4688 102.643 34.761 102.643 33.7854V18.6347C102.643 18.4243 102.604 18.2808 102.528 18.2043C102.451 18.1086 102.317 18.0608 102.126 18.0608H101.007L100.749 17.4008C101.246 16.9417 101.82 16.5687 102.47 16.2817C103.121 15.9757 103.704 15.8226 104.221 15.8226C104.469 15.8226 104.67 15.8991 104.823 16.0522C104.976 16.2052 105.053 16.4061 105.053 16.6548L104.995 33.8715C104.995 34.1584 105.062 34.3784 105.196 34.5314C105.33 34.6845 105.522 34.761 105.77 34.761C106.248 34.761 106.679 34.5793 107.061 34.2158L107.578 34.8758C107.138 35.3732 106.65 35.7749 106.115 36.081C105.579 36.387 105.101 36.5401 104.68 36.5401ZM114.019 36.5401C112.068 36.5401 110.518 35.9279 109.37 34.7036C108.223 33.4602 107.649 31.7959 107.649 29.7108C107.649 27.6256 108.223 25.9805 109.37 24.7753C110.518 23.551 112.068 22.9389 114.019 22.9389C115.301 22.9389 116.42 23.2162 117.376 23.771C118.333 24.3258 119.069 25.1101 119.586 26.124C120.102 27.1378 120.36 28.3334 120.36 29.7108C120.36 31.0881 120.093 32.2933 119.557 33.3263C119.041 34.3593 118.304 35.1532 117.348 35.7079C116.391 36.2627 115.282 36.5401 114.019 36.5401ZM113.962 35.134C115.052 35.134 115.932 34.6462 116.602 33.6706C117.29 32.6759 117.635 31.3751 117.635 29.7682C117.635 28.9456 117.52 28.123 117.29 27.3004C117.061 26.4587 116.678 25.7509 116.142 25.177C115.626 24.584 114.947 24.2875 114.105 24.2875C112.976 24.2875 112.068 24.7849 111.379 25.7796C110.71 26.7744 110.375 28.0943 110.375 29.7395C110.375 31.3846 110.69 32.695 111.322 33.6706C111.972 34.6462 112.852 35.134 113.962 35.134ZM133.372 36.5401C132.664 36.5401 132.157 36.3296 131.851 35.9088C131.545 35.4688 131.392 34.761 131.392 33.7854V27.5874C131.392 26.7074 131.2 26.0474 130.818 25.6075C130.435 25.1483 129.871 24.9188 129.125 24.9188C128.379 24.9188 127.719 25.2153 127.145 25.8083C126.59 26.4013 126.16 27.2335 125.854 28.3047C125.548 29.376 125.395 30.6099 125.395 32.0063C125.395 32.8098 125.452 33.4602 125.567 33.9576C125.701 34.4549 125.921 34.9236 126.227 35.3636L126.542 35.7653L126.227 36.167H121.664L121.406 35.3636L121.894 35.2201C122.353 35.1436 122.649 34.9714 122.783 34.7036C122.936 34.4167 123.013 33.9384 123.013 33.2689V25.9805C123.013 25.7701 122.975 25.6266 122.898 25.5501C122.822 25.4544 122.688 25.4066 122.496 25.4066H121.377L121.119 24.7179C121.616 24.2588 122.19 23.8858 122.841 23.5988C123.491 23.3119 124.065 23.1684 124.562 23.1684C124.811 23.1684 125.012 23.2449 125.165 23.398C125.318 23.551 125.395 23.7423 125.395 23.9719V26.8126C125.835 25.684 126.504 24.7562 127.403 24.0293C128.302 23.3023 129.249 22.9389 130.244 22.9389C131.449 22.9389 132.329 23.3119 132.884 24.058C133.458 24.804 133.745 25.9805 133.745 27.5874V33.8715C133.745 34.4645 134.003 34.761 134.519 34.761C134.94 34.761 135.371 34.5793 135.811 34.2158L136.298 34.8758C135.859 35.3732 135.371 35.7749 134.835 36.081C134.299 36.387 133.812 36.5401 133.372 36.5401Z" fill="url(#paint1_linear)"/>
<path d="M53.7342 18.233C53.5146 15.2557 52.3701 15.3499 52.8094 12.4299C53.2485 9.50993 53.6879 7.16245 54.0173 7.506C54.3467 7.84953 54.9047 13.9186 54.7858 15.4072C54.6668 16.8958 53.7342 18.233 53.7342 18.233Z" fill="#C4C4C4" fill-opacity="0.29"/>
<path d="M118.126 20.6242C117.686 14.9177 115.398 15.0984 116.276 9.50168C117.154 3.90499 118.033 -0.594293 118.692 0.0641393C119.35 0.722572 120.467 12.3549 120.229 15.2081C119.991 18.0613 118.126 20.6242 118.126 20.6242Z" fill="#C4C4C4" fill-opacity="0.29"/>
<defs>
<linearGradient id="paint0_linear" x1="36.7187" y1="4.78242" x2="36.7187" y2="47.2264" gradientUnits="userSpaceOnUse">
<stop offset="0.619792"/>
<stop offset="0.734375" stop-opacity="0"/>
</linearGradient>
<linearGradient id="paint1_linear" x1="111.444" y1="4.78242" x2="111.444" y2="47.2264" gradientUnits="userSpaceOnUse">
<stop offset="0.619792"/>
<stop offset="0.734375" stop-opacity="0"/>
</linearGradient>
</defs>
</svg>
